<mxfile host="app.diagrams.net" agent="Mozilla/5.0 (Windows NT 10.0; Win64; x64) AppleWebKit/537.36 (KHTML, like Gecko) Chrome/125.0.0.0 Safari/537.36" version="24.7.17">
  <diagram id="R2lEEEUBdFMjLlhIrx00" name="Page-1">
    <mxGraphModel dx="1354" dy="735" grid="1" gridSize="10" guides="1" tooltips="1" connect="1" arrows="1" fold="1" page="1" pageScale="1" pageWidth="850" pageHeight="1100" math="0" shadow="0" extFonts="Permanent Marker^https://fonts.googleapis.com/css?family=Permanent+Marker">
      <root>
        <mxCell id="0" />
        <mxCell id="1" parent="0" />
        <mxCell id="xMVm-TEatepY0aYRcylu-1" value="Asset" style="swimlane;childLayout=stackLayout;horizontal=1;startSize=30;horizontalStack=0;rounded=1;fontSize=14;fontStyle=0;strokeWidth=2;resizeParent=0;resizeLast=1;shadow=0;dashed=0;align=center;arcSize=4;whiteSpace=wrap;html=1;direction=east;" vertex="1" parent="1">
          <mxGeometry x="340" y="110" width="160" height="280" as="geometry">
            <mxRectangle x="80" y="270" width="80" height="30" as="alternateBounds" />
          </mxGeometry>
        </mxCell>
        <mxCell id="xMVm-TEatepY0aYRcylu-2" value="&lt;div&gt;&lt;span style=&quot;background-color: initial;&quot;&gt;+AccountNo&lt;/span&gt;&lt;br&gt;&lt;/div&gt;&lt;div&gt;&amp;nbsp;&lt;br&gt;+&lt;span style=&quot;text-wrap: wrap;&quot;&gt;Brand/Description&lt;/span&gt;&lt;/div&gt;&lt;div&gt;&lt;br&gt;+Model&lt;/div&gt;&lt;div&gt;&lt;br&gt;&lt;/div&gt;&lt;div&gt;+SerialNo&lt;/div&gt;&lt;div&gt;&lt;br&gt;&lt;/div&gt;&lt;div&gt;+DatePurchased&lt;br&gt;&lt;/div&gt;&lt;div&gt;&lt;br&gt;&lt;/div&gt;&lt;div&gt;+Location&lt;/div&gt;&lt;div&gt;&lt;br&gt;&lt;/div&gt;&lt;div&gt;+Status&lt;/div&gt;&lt;div&gt;&lt;br&gt;&lt;/div&gt;&lt;div&gt;+Remarks&lt;/div&gt;" style="align=left;strokeColor=none;fillColor=none;spacingLeft=4;fontSize=12;verticalAlign=top;resizable=0;rotatable=0;part=1;html=1;" vertex="1" parent="xMVm-TEatepY0aYRcylu-1">
          <mxGeometry y="30" width="160" height="250" as="geometry" />
        </mxCell>
        <mxCell id="xMVm-TEatepY0aYRcylu-45" style="edgeStyle=orthogonalEdgeStyle;rounded=0;orthogonalLoop=1;jettySize=auto;html=1;entryX=0.002;entryY=0.201;entryDx=0;entryDy=0;entryPerimeter=0;" edge="1" parent="1" target="xMVm-TEatepY0aYRcylu-2">
          <mxGeometry relative="1" as="geometry">
            <mxPoint x="230" y="190" as="sourcePoint" />
          </mxGeometry>
        </mxCell>
        <mxCell id="xMVm-TEatepY0aYRcylu-48" style="edgeStyle=orthogonalEdgeStyle;rounded=0;orthogonalLoop=1;jettySize=auto;html=1;exitX=0.5;exitY=0;exitDx=0;exitDy=0;entryX=0.007;entryY=0.882;entryDx=0;entryDy=0;entryPerimeter=0;" edge="1" parent="1" source="xMVm-TEatepY0aYRcylu-46" target="xMVm-TEatepY0aYRcylu-2">
          <mxGeometry relative="1" as="geometry">
            <mxPoint x="310" y="360" as="targetPoint" />
            <Array as="points">
              <mxPoint x="150" y="360" />
            </Array>
          </mxGeometry>
        </mxCell>
        <mxCell id="xMVm-TEatepY0aYRcylu-46" value="ComputerSet" style="swimlane;childLayout=stackLayout;horizontal=1;startSize=50;horizontalStack=0;rounded=1;fontSize=14;fontStyle=0;strokeWidth=2;resizeParent=0;resizeLast=1;shadow=0;dashed=0;align=center;arcSize=4;whiteSpace=wrap;html=1;" vertex="1" parent="1">
          <mxGeometry x="70" y="470" width="160" height="120" as="geometry" />
        </mxCell>
        <mxCell id="xMVm-TEatepY0aYRcylu-49" value="Laptop" style="swimlane;childLayout=stackLayout;horizontal=1;startSize=50;horizontalStack=0;rounded=1;fontSize=14;fontStyle=0;strokeWidth=2;resizeParent=0;resizeLast=1;shadow=0;dashed=0;align=center;arcSize=4;whiteSpace=wrap;html=1;" vertex="1" parent="1">
          <mxGeometry x="250" y="470" width="160" height="120" as="geometry" />
        </mxCell>
        <mxCell id="xMVm-TEatepY0aYRcylu-51" value="Projector" style="swimlane;childLayout=stackLayout;horizontal=1;startSize=50;horizontalStack=0;rounded=1;fontSize=14;fontStyle=0;strokeWidth=2;resizeParent=0;resizeLast=1;shadow=0;dashed=0;align=center;arcSize=4;whiteSpace=wrap;html=1;" vertex="1" parent="1">
          <mxGeometry x="430" y="470" width="160" height="120" as="geometry" />
        </mxCell>
        <mxCell id="xMVm-TEatepY0aYRcylu-56" style="edgeStyle=orthogonalEdgeStyle;rounded=0;orthogonalLoop=1;jettySize=auto;html=1;exitX=0.5;exitY=0;exitDx=0;exitDy=0;entryX=0.999;entryY=0.886;entryDx=0;entryDy=0;entryPerimeter=0;" edge="1" parent="1" source="xMVm-TEatepY0aYRcylu-53" target="xMVm-TEatepY0aYRcylu-2">
          <mxGeometry relative="1" as="geometry">
            <mxPoint x="690" y="360.0000000000001" as="targetPoint" />
          </mxGeometry>
        </mxCell>
        <mxCell id="xMVm-TEatepY0aYRcylu-53" value="AudioPlayer" style="swimlane;childLayout=stackLayout;horizontal=1;startSize=50;horizontalStack=0;rounded=1;fontSize=14;fontStyle=0;strokeWidth=2;resizeParent=0;resizeLast=1;shadow=0;dashed=0;align=center;arcSize=4;whiteSpace=wrap;html=1;" vertex="1" parent="1">
          <mxGeometry x="610" y="470" width="160" height="120" as="geometry" />
        </mxCell>
        <mxCell id="xMVm-TEatepY0aYRcylu-58" style="edgeStyle=orthogonalEdgeStyle;rounded=0;orthogonalLoop=1;jettySize=auto;html=1;exitX=0.25;exitY=0;exitDx=0;exitDy=0;entryX=0.806;entryY=0.995;entryDx=0;entryDy=0;entryPerimeter=0;" edge="1" parent="1" source="xMVm-TEatepY0aYRcylu-51" target="xMVm-TEatepY0aYRcylu-2">
          <mxGeometry relative="1" as="geometry" />
        </mxCell>
        <mxCell id="xMVm-TEatepY0aYRcylu-59" style="edgeStyle=orthogonalEdgeStyle;rounded=0;orthogonalLoop=1;jettySize=auto;html=1;exitX=0.75;exitY=0;exitDx=0;exitDy=0;entryX=0.189;entryY=1.001;entryDx=0;entryDy=0;entryPerimeter=0;" edge="1" parent="1" source="xMVm-TEatepY0aYRcylu-49" target="xMVm-TEatepY0aYRcylu-2">
          <mxGeometry relative="1" as="geometry" />
        </mxCell>
        <mxCell id="xMVm-TEatepY0aYRcylu-89" value="&lt;span style=&quot;font-weight: 700; text-wrap: nowrap;&quot;&gt;User&amp;nbsp;&lt;/span&gt;" style="swimlane;fontStyle=0;align=center;verticalAlign=top;childLayout=stackLayout;horizontal=1;startSize=31;horizontalStack=0;resizeParent=1;resizeParentMax=0;resizeLast=0;collapsible=0;marginBottom=0;html=1;whiteSpace=wrap;" vertex="1" parent="1">
          <mxGeometry x="30" y="110" width="200" height="159" as="geometry" />
        </mxCell>
        <mxCell id="xMVm-TEatepY0aYRcylu-90" value="-ID (PK)" style="text;html=1;strokeColor=none;fillColor=none;align=left;verticalAlign=middle;spacingLeft=4;spacingRight=4;overflow=hidden;rotatable=0;points=[[0,0.5],[1,0.5]];portConstraint=eastwest;whiteSpace=wrap;" vertex="1" parent="xMVm-TEatepY0aYRcylu-89">
          <mxGeometry y="31" width="200" height="20" as="geometry" />
        </mxCell>
        <mxCell id="xMVm-TEatepY0aYRcylu-91" value="-Password" style="text;html=1;strokeColor=none;fillColor=none;align=left;verticalAlign=middle;spacingLeft=4;spacingRight=4;overflow=hidden;rotatable=0;points=[[0,0.5],[1,0.5]];portConstraint=eastwest;whiteSpace=wrap;" vertex="1" parent="xMVm-TEatepY0aYRcylu-89">
          <mxGeometry y="51" width="200" height="20" as="geometry" />
        </mxCell>
        <mxCell id="xMVm-TEatepY0aYRcylu-95" value="+FirstName" style="text;html=1;strokeColor=none;fillColor=none;align=left;verticalAlign=middle;spacingLeft=4;spacingRight=4;overflow=hidden;rotatable=0;points=[[0,0.5],[1,0.5]];portConstraint=eastwest;whiteSpace=wrap;" vertex="1" parent="xMVm-TEatepY0aYRcylu-89">
          <mxGeometry y="71" width="200" height="20" as="geometry" />
        </mxCell>
        <mxCell id="xMVm-TEatepY0aYRcylu-96" value="+LastName" style="text;html=1;strokeColor=none;fillColor=none;align=left;verticalAlign=middle;spacingLeft=4;spacingRight=4;overflow=hidden;rotatable=0;points=[[0,0.5],[1,0.5]];portConstraint=eastwest;whiteSpace=wrap;" vertex="1" parent="xMVm-TEatepY0aYRcylu-89">
          <mxGeometry y="91" width="200" height="20" as="geometry" />
        </mxCell>
        <mxCell id="xMVm-TEatepY0aYRcylu-94" value="" style="line;strokeWidth=1;fillColor=none;align=left;verticalAlign=middle;spacingTop=-1;spacingLeft=3;spacingRight=3;rotatable=0;labelPosition=right;points=[];portConstraint=eastwest;" vertex="1" parent="xMVm-TEatepY0aYRcylu-89">
          <mxGeometry y="111" width="200" height="8" as="geometry" />
        </mxCell>
        <mxCell id="xMVm-TEatepY0aYRcylu-100" value="+Login(string ID, string Password)" style="text;html=1;strokeColor=none;fillColor=none;align=left;verticalAlign=middle;spacingLeft=4;spacingRight=4;overflow=hidden;rotatable=0;points=[[0,0.5],[1,0.5]];portConstraint=eastwest;whiteSpace=wrap;" vertex="1" parent="xMVm-TEatepY0aYRcylu-89">
          <mxGeometry y="119" width="200" height="20" as="geometry" />
        </mxCell>
        <mxCell id="xMVm-TEatepY0aYRcylu-101" value="+ Logout()" style="text;html=1;strokeColor=none;fillColor=none;align=left;verticalAlign=middle;spacingLeft=4;spacingRight=4;overflow=hidden;rotatable=0;points=[[0,0.5],[1,0.5]];portConstraint=eastwest;whiteSpace=wrap;" vertex="1" parent="xMVm-TEatepY0aYRcylu-89">
          <mxGeometry y="139" width="200" height="20" as="geometry" />
        </mxCell>
      </root>
    </mxGraphModel>
  </diagram>
</mxfile>
